<?xml version="1.0" encoding="UTF-8" standalone="no"?>
<!-- Created with Inkscape (http://www.inkscape.org/) -->

<svg
   width="215.3871mm"
   height="64.935478mm"
   viewBox="0 0 215.3871 64.935478"
   version="1.1"
   id="svg5"
   inkscape:version="1.2.1 (9c6d41e410, 2022-07-14)"
   sodipodi:docname="dibujo1.svg"
   xmlns:inkscape="http://www.inkscape.org/namespaces/inkscape"
   xmlns:sodipodi="http://sodipodi.sourceforge.net/DTD/sodipodi-0.dtd"
   xmlns="http://www.w3.org/2000/svg"
   xmlns:svg="http://www.w3.org/2000/svg">
  <sodipodi:namedview
     id="namedview7"
     pagecolor="#ffffff"
     bordercolor="#666666"
     borderopacity="1.0"
     inkscape:showpageshadow="2"
     inkscape:pageopacity="0.0"
     inkscape:pagecheckerboard="0"
     inkscape:deskcolor="#d1d1d1"
     inkscape:document-units="mm"
     showgrid="false"
     inkscape:zoom="0.74564394"
     inkscape:cx="497.55652"
     inkscape:cy="317.84608"
     inkscape:window-width="1920"
     inkscape:window-height="1017"
     inkscape:window-x="-8"
     inkscape:window-y="-8"
     inkscape:window-maximized="1"
     inkscape:current-layer="layer1" />
  <defs
     id="defs2" />
  <g
     inkscape:label="Capa 1"
     inkscape:groupmode="layer"
     id="layer1"
     transform="translate(26.612906,-64.580643)">
    <rect
       style="fill:#ff2a2a;stroke-width:6.75114;stroke-linecap:round;paint-order:stroke fill markers"
       id="rect274"
       width="215.3871"
       height="64.935478"
       x="-26.612906"
       y="64.580643"
       ry="1.5593982" />
    <rect
       style="fill:#d40000;stroke-width:6.46499;stroke-linecap:round;paint-order:stroke fill markers"
       id="rect111"
       width="38.677414"
       height="27.677423"
       x="2.4838705"
       y="71.677422"
       ry="1.8235586" />
    <path
       sodipodi:type="spiral"
       style="fill:none;fill-rule:evenodd;stroke:#000000;stroke-width:0.264583"
       id="path166"
       sodipodi:cx="137.67741"
       sodipodi:cy="96.870964"
       sodipodi:expansion="1"
       sodipodi:revolution="3"
       sodipodi:radius="26.601072"
       sodipodi:argument="-21.186884"
       sodipodi:t0="0"
       d="m 137.67741,96.870964 c -0.92513,-0.960717 0.8386,-1.721046 1.59678,-1.537633 2.05461,0.497037 2.33642,3.146066 1.47849,4.731179 -1.53464,2.83541 -5.38581,3.0983 -7.86559,1.41935 -3.63918,-2.463919 -3.88342,-7.656183 -1.36021,-10.999998 3.36305,-4.456778 9.93747,-4.678496 14.13441,-1.301064 5.28143,4.250155 5.47873,12.223952 1.24192,17.268822 -5.13134,6.11001 -14.51336,6.28194 -20.40322,1.18278 -6.941,-6.00919 -7.08704,-16.804614 -1.12364,-23.537639 6.88498,-7.773545 19.09707,-7.893377 26.67204,-1.064495 8.60716,7.75941 8.7006,21.390394 1.00536,29.806454 -8.6329,9.44154 -23.68435,9.50844 -32.94087,0.94621 -10.27648,-9.50571 -10.31677,-25.978768 -0.88706,-36.075271" />
  </g>
</svg>
